<svg width="32" height="32" viewBox="0 0 32 32" fill="none" xmlns="http://www.w3.org/2000/svg">
<rect width="32" height="32" rx="16" transform="matrix(-1 0 0 1 32 0)" fill="black" fill-opacity="0.6"/>
<path d="M16.8331 15.8668C16.8331 16.2534 16.5197 16.5668 16.1331 16.5668C15.7465 16.5668 15.4331 16.2534 15.4331 15.8668C15.4331 15.4802 15.7465 15.1668 16.1331 15.1668C16.5197 15.1668 16.8331 15.4802 16.8331 15.8668Z" fill="white" stroke="white" stroke-width="1.16667" stroke-linecap="round" stroke-linejoin="round"/>
<path d="M11.0001 15.8668C11.0001 16.2534 10.6867 16.5668 10.3001 16.5668C9.9135 16.5668 9.6001 16.2534 9.6001 15.8668C9.6001 15.4802 9.9135 15.1668 10.3001 15.1668C10.6867 15.1668 11.0001 15.4802 11.0001 15.8668Z" fill="white" stroke="white" stroke-width="1.16667" stroke-linecap="round" stroke-linejoin="round"/>
<path d="M22.6666 15.8668C22.6666 16.2534 22.3532 16.5668 21.9666 16.5668C21.58 16.5668 21.2666 16.2534 21.2666 15.8668C21.2666 15.4802 21.58 15.1668 21.9666 15.1668C22.3532 15.1668 22.6666 15.4802 22.6666 15.8668Z" fill="white" stroke="white" stroke-width="1.16667" stroke-linecap="round" stroke-linejoin="round"/>
</svg>
